<?xml version="1.0" standalone="no"?>
<!DOCTYPE svg PUBLIC "-//W3C//DTD SVG 20010904//EN"
 "http://www.w3.org/TR/2001/REC-SVG-20010904/DTD/svg10.dtd">
<svg version="1.0" xmlns="http://www.w3.org/2000/svg"
 width="533.000000pt" height="533.000000pt" viewBox="0 0 533.000000 533.000000"
 preserveAspectRatio="xMidYMid meet">

<g transform="translate(0.000000,533.000000) scale(0.100000,-0.100000)"
fill="#426683" stroke="none">
<path d="M1958 5168 l-3 -73 -327 -3 -328 -2 0 -540 0 -540 535 0 535 0 0
-735 0 -735 100 0 101 0 -3 -137 -3 -138 -97 -3 -98 -3 -2 -377 -3 -377 -117
-3 -118 -3 0 -514 0 -515 155 0 155 0 0 -190 0 -190 460 0 460 0 0 385 0 385
335 0 335 0 0 464 0 464 -50 321 -50 321 0 1035 0 1035 -290 0 -290 0 0 199 0
199 -225 -6 -225 -5 0 176 0 177 -470 0 -469 0 -3 -72z m692 -354 l0 -176 225
7 225 7 0 -196 0 -196 288 -2 287 -3 5 -945 5 -945 48 -288 47 -288 0 -340 0
-339 -335 0 -335 0 0 -385 0 -385 -210 0 -210 0 0 190 0 190 -160 0 -160 0 2
267 3 268 118 3 117 3 0 379 0 380 100 0 100 0 0 380 0 379 -92 3 -93 3 -3
733 -2 732 -535 0 -535 0 0 300 0 300 213 -2 212 -3 3 -72 3 -73 109 0 110 0
0 145 0 145 225 0 225 0 0 -176z"/>
<path d="M2885 3951 c-48 -12 -84 -41 -106 -83 -19 -37 -20 -57 -17 -408 3
-354 4 -370 24 -396 11 -15 33 -37 48 -48 26 -20 40 -21 316 -21 277 0 290 1
317 21 15 11 38 36 51 54 l23 34 -3 375 c-4 509 22 475 -368 478 -140 1 -269
-2 -285 -6z m373 -478 l2 -203 -110 0 -110 0 0 198 c0 109 3 202 7 206 4 4 52
5 107 4 l101 -3 3 -202z"/>
<path d="M2804 1647 c-2 -7 -3 -60 -2 -118 l3 -104 90 -3 c144 -5 136 -11 133
121 l-3 112 -108 3 c-83 2 -109 0 -113 -11z"/>
<path d="M3125 1647 c-3 -7 -4 -96 -3 -197 l3 -185 193 -3 192 -2 -2 197 -3
198 -188 3 c-147 2 -189 0 -192 -11z"/>
<path d="M2802 1138 l3 -113 110 0 110 0 0 110 0 110 -113 3 -113 3 3 -113z"/>
</g>
</svg>
