<?xml version="1.0" standalone="no"?>
<!DOCTYPE svg PUBLIC "-//W3C//DTD SVG 20010904//EN"
 "http://www.w3.org/TR/2001/REC-SVG-20010904/DTD/svg10.dtd">
<svg version="1.0" xmlns="http://www.w3.org/2000/svg"
 width="533.000000pt" height="533.000000pt" viewBox="0 0 533.000000 533.000000"
 preserveAspectRatio="xMidYMid meet">
<metadata>
Created by potrace 1.16, written by Peter Selinger 2001-2019
</metadata>
<g transform="translate(0.000000,533.000000) scale(0.100000,-0.100000)"
fill="#426683" stroke="none">
<path d="M2040 5129 c-60 -27 -117 -83 -146 -144 -22 -47 -24 -61 -24 -237 l0
-186 -252 -4 c-241 -3 -255 -4 -306 -27 -31 -14 -70 -43 -97 -73 -82 -91 -76
97 -73 -2123 l3 -1980 22 -41 c36 -67 70 -101 135 -133 l61 -31 1297 0 c1448
0 1347 -5 1434 71 25 22 56 63 71 92 l25 53 -2 1979 c-3 1946 -3 1981 -23
2020 -26 54 -87 113 -144 139 -42 19 -65 21 -293 24 l-248 3 0 193 c0 221 -8
258 -71 330 -22 24 -63 56 -91 70 l-52 26 -590 0 c-572 0 -592 -1 -636 -21z
m1190 -409 l0 -190 -298 0 c-289 0 -299 -1 -342 -22 -46 -24 -90 -77 -90 -109
0 -26 59 -89 97 -105 26 -11 161 -14 693 -14 l660 0 0 -1940 0 -1940 -1280 0
-1280 0 0 1955 0 1955 243 0 c273 0 305 6 376 66 23 20 53 57 69 82 27 46 27
49 30 250 l3 202 560 0 559 0 0 -190z"/>
<path d="M2650 3733 c-60 -23 -69 -40 -496 -902 -292 -588 -423 -863 -420
-877 9 -35 47 -76 90 -95 37 -17 72 -19 399 -19 l357 0 0 -357 c0 -206 5 -377
11 -402 13 -57 40 -94 84 -115 31 -15 38 -15 62 -2 16 8 38 25 50 38 12 12
220 400 463 861 310 590 439 844 435 858 -4 10 -18 33 -32 49 -51 61 -46 60
-472 60 l-390 0 -3 404 c-3 393 -4 405 -24 433 -20 27 -80 74 -93 72 -3 0 -13
-3 -21 -6z m-110 -915 c0 -99 17 -155 58 -191 47 -42 82 -46 415 -47 l317 0 0
-49 c0 -45 -19 -85 -197 -425 l-198 -376 -52 0 -53 0 0 124 c0 135 -10 163
-73 210 -27 20 -42 21 -353 24 l-324 3 0 47 c0 41 23 94 177 410 l177 362 53
0 53 0 0 -92z"/>
</g>
</svg>
