<?xml version="1.0" standalone="no"?>
<!DOCTYPE svg PUBLIC "-//W3C//DTD SVG 20010904//EN"
 "http://www.w3.org/TR/2001/REC-SVG-20010904/DTD/svg10.dtd">
<svg version="1.0" xmlns="http://www.w3.org/2000/svg"
 width="533.000000pt" height="533.000000pt" viewBox="0 0 533.000000 533.000000"
 preserveAspectRatio="xMidYMid meet">

<g transform="translate(0.000000,533.000000) scale(0.100000,-0.100000)"
fill="#426683" stroke="none">
<path d="M2505 5186 c-184 -37 -326 -116 -457 -254 -73 -78 -121 -154 -162
-256 -56 -139 -56 -134 -56 -1006 0 -763 1 -809 20 -886 43 -182 140 -335 284
-450 286 -228 684 -245 987 -43 133 90 219 191 289 342 78 170 75 121 75 1047
l0 825 -28 90 c-55 176 -157 327 -288 428 -85 64 -217 130 -310 152 -92 22
-269 28 -354 11z m649 -2001 c0 -273 -2 -294 -23 -353 -53 -153 -170 -272
-316 -322 -271 -93 -565 68 -640 351 -11 41 -15 124 -15 337 l0 282 498 -2
497 -3 -1 -290z"/>
<path d="M1220 2798 c-117 -60 -117 -191 0 -435 179 -371 518 -644 936 -753
61 -16 151 -34 200 -40 49 -6 99 -13 112 -16 l22 -4 0 -671 c0 -728 -2 -707
56 -761 82 -76 217 -57 271 38 l23 39 0 677 0 677 33 5 c17 3 68 10 112 16
437 62 802 283 1032 625 78 116 169 320 187 417 26 141 -125 254 -252 189 -55
-28 -70 -50 -103 -147 -56 -161 -124 -276 -236 -395 -211 -224 -503 -342 -878
-356 -244 -9 -434 20 -630 96 -286 111 -517 350 -612 634 -21 62 -45 113 -61
131 -55 59 -136 72 -212 34z"/>
</g>
</svg>
