<?xml version="1.0" standalone="no"?>
<!DOCTYPE svg PUBLIC "-//W3C//DTD SVG 20010904//EN"
 "http://www.w3.org/TR/2001/REC-SVG-20010904/DTD/svg10.dtd">
<svg version="1.0" xmlns="http://www.w3.org/2000/svg"
 width="533.000000pt" height="533.000000pt" viewBox="0 0 533.000000 533.000000"
 preserveAspectRatio="xMidYMid meet">
<metadata>
Created by potrace 1.16, written by Peter Selinger 2001-2019
</metadata>
<g transform="translate(0.000000,533.000000) scale(0.100000,-0.100000)"
fill="#426683" stroke="none">
<path d="M1422 5169 c-51 -25 -99 -80 -112 -129 -6 -22 -10 -445 -10 -1115 0
-1032 1 -1082 18 -1115 20 -37 46 -55 261 -178 106 -61 127 -70 145 -60 11 6
114 68 227 139 204 127 207 129 265 129 l59 0 40 -78 c34 -66 47 -80 85 -99
39 -20 59 -23 175 -23 160 0 194 9 238 60 31 37 38 40 83 40 45 0 54 -4 86
-37 31 -33 46 -69 108 -258 65 -195 77 -224 110 -258 46 -45 69 -46 113 -4 30
28 44 61 119 292 76 230 89 283 119 463 l33 202 56 0 c56 0 57 -1 180 -95 68
-53 132 -101 142 -106 24 -13 71 13 102 54 21 28 21 30 24 1026 l2 997 -27 54
c-19 36 -43 65 -71 85 l-44 30 -1241 3 -1242 2 -43 -21z m2448 -1019 l0 -830
-56 0 c-54 0 -59 2 -142 68 -133 105 -137 107 -173 92 -64 -27 -73 -56 -136
-427 l-58 -343 -52 0 c-29 0 -53 4 -53 9 0 5 -50 64 -110 131 -128 141 -124
123 -89 340 21 131 21 132 2 159 -11 14 -35 36 -53 49 -32 21 -34 22 -63 5
-56 -34 -67 -60 -94 -229 -20 -130 -31 -173 -61 -236 l-36 -78 -111 0 -111 0
-37 75 c-47 96 -51 173 -12 266 l26 60 -76 162 c-77 163 -111 213 -152 223
-28 7 -78 -27 -99 -67 -15 -29 -13 -33 40 -150 70 -149 73 -191 22 -302 l-33
-74 -202 -126 c-240 -150 -251 -153 -361 -89 l-65 38 -3 1052 -2 1052 1175 0
1175 0 0 -830z"/>
<path d="M2137 4676 c-45 -16 -83 -49 -103 -89 -13 -24 -13 -31 2 -63 10 -20
35 -48 57 -62 l40 -27 306 -3 c339 -3 366 1 416 59 38 46 41 74 12 118 -48 73
-64 76 -397 78 -232 2 -303 0 -333 -11z"/>
<path d="M3240 4683 c-65 -25 -117 -103 -99 -150 22 -60 95 -111 142 -99 27 6
94 70 103 98 13 43 -29 114 -87 143 -30 16 -35 17 -59 8z"/>
<path d="M514 3231 c-37 -22 -64 -58 -64 -83 0 -10 15 -34 33 -53 45 -48 407
-295 433 -295 27 0 70 34 88 68 29 58 14 72 -317 296 -70 47 -131 86 -135 86
-4 0 -21 -9 -38 -19z"/>
<path d="M4734 3224 c-356 -241 -414 -286 -414 -323 0 -39 61 -100 101 -101
21 0 408 264 436 298 13 15 23 38 23 51 0 26 -68 101 -92 101 -9 0 -33 -12
-54 -26z"/>
<path d="M3860 2578 c-108 -10 -156 -30 -183 -76 -23 -39 -126 -411 -168 -609
l-33 -153 -205 0 -206 0 -105 271 c-88 227 -110 276 -138 300 -18 16 -41 29
-52 29 -35 0 -88 -58 -112 -122 l-22 -61 -80 7 c-45 3 -108 6 -142 6 l-60 0
-13 53 c-20 81 -49 134 -86 157 -31 19 -36 20 -62 6 -15 -8 -98 -73 -184 -144
-166 -137 -211 -162 -287 -162 -42 0 -57 7 -122 54 -53 38 -82 67 -100 101
-15 29 -40 56 -62 69 l-37 21 -28 -21 c-15 -11 -38 -36 -50 -54 l-23 -33 0
-966 c0 -950 1 -967 21 -1011 27 -60 45 -79 104 -106 l50 -24 1221 0 1222 0
53 28 c39 20 62 41 84 77 l30 48 3 1104 c2 1091 2 1104 -18 1143 -18 36 -82
83 -107 79 -4 -1 -51 -6 -103 -11z m10 -1353 l0 -895 -1175 0 -1175 0 0 780 0
780 51 0 c36 0 60 -6 81 -21 16 -12 39 -21 51 -21 40 0 234 101 296 152 56 46
64 50 114 50 62 0 59 6 73 -135 3 -39 15 -86 26 -106 20 -36 63 -69 91 -69 26
0 70 45 127 130 l55 82 150 -7 c83 -4 150 -8 151 -9 0 0 28 -75 63 -166 48
-124 72 -174 97 -200 l34 -35 288 -3 c273 -2 289 -1 320 18 18 11 40 33 50 49
10 17 42 140 71 275 l54 246 53 0 54 0 0 -895z"/>
<path d="M2650 1338 c-169 -30 -325 -206 -325 -368 1 -218 259 -420 454 -355
128 42 234 150 272 278 19 61 20 76 10 122 -44 198 -241 353 -411 323z m147
-159 c34 -13 80 -55 99 -91 18 -35 19 -187 0 -231 -28 -68 -102 -107 -201
-107 -67 0 -118 15 -155 47 -49 41 -60 72 -60 174 0 80 3 98 25 134 35 61 89
85 187 85 42 0 89 -5 105 -11z"/>
<path d="M864 2514 c-387 -263 -414 -284 -414 -327 0 -25 72 -97 97 -97 29 0
430 279 453 315 18 28 18 32 3 63 -14 30 -67 72 -90 72 -6 0 -28 -12 -49 -26z"/>
<path d="M4359 2501 c-22 -21 -39 -48 -39 -60 0 -12 15 -37 33 -56 45 -49 407
-294 434 -295 29 0 93 64 93 93 0 48 -25 69 -292 250 -87 59 -165 107 -174
107 -9 0 -34 -17 -55 -39z"/>
</g>
</svg>
