<?xml version="1.0" standalone="no"?>
<!DOCTYPE svg PUBLIC "-//W3C//DTD SVG 20010904//EN"
 "http://www.w3.org/TR/2001/REC-SVG-20010904/DTD/svg10.dtd">
<svg version="1.0" xmlns="http://www.w3.org/2000/svg"
 width="533.000000pt" height="533.000000pt" viewBox="0 0 533.000000 533.000000"
 preserveAspectRatio="xMidYMid meet">
<metadata>
Created by potrace 1.16, written by Peter Selinger 2001-2019
</metadata>
<g transform="translate(0.000000,533.000000) scale(0.100000,-0.100000)"
fill="#426683" stroke="none">
<path d="M4345 4086 c-22 -14 -50 -42 -63 -64 -30 -54 -21 -74 82 -183 227
-238 375 -582 438 -1014 20 -138 17 -619 -5 -766 -64 -428 -214 -761 -451
-1001 -81 -82 -92 -107 -70 -154 18 -37 64 -77 101 -88 35 -11 72 15 170 118
427 446 631 1248 502 1971 -79 437 -254 816 -499 1078 -66 70 -139 128 -162
127 -2 0 -21 -11 -43 -24z"/>
<path d="M1930 3555 c-322 -222 -598 -406 -614 -409 -16 -3 -249 -6 -518 -6
-539 0 -525 2 -547 -62 -7 -21 -11 -227 -11 -625 0 -638 0 -644 51 -670 18
-10 146 -14 509 -15 l485 -3 510 -334 c281 -184 561 -368 623 -408 l113 -73
24 26 25 27 0 1452 0 1452 -21 27 c-11 14 -26 26 -32 26 -7 -1 -275 -183 -597
-405z m380 -1100 l0 -1005 -56 0 -56 0 -413 270 c-241 158 -438 280 -472 292
-55 21 -78 22 -430 26 l-373 4 0 414 0 414 363 0 c382 0 444 5 531 45 28 13
220 140 426 283 372 259 375 261 428 261 l52 1 0 -1005z"/>
<path d="M3739 3617 c-45 -30 -74 -85 -65 -120 3 -15 39 -63 79 -106 118 -128
204 -304 248 -502 56 -256 47 -613 -21 -859 -45 -159 -159 -357 -265 -459 -19
-19 -38 -45 -41 -58 -12 -47 39 -119 99 -142 39 -15 77 6 150 83 256 267 412
752 376 1171 -31 371 -164 699 -371 921 -92 98 -128 112 -189 71z"/>
<path d="M3120 3302 c-55 -19 -106 -86 -95 -123 4 -11 33 -50 65 -86 69 -77
120 -176 152 -294 21 -76 23 -105 22 -299 0 -189 -3 -225 -22 -295 -31 -112
-92 -229 -157 -298 -30 -32 -57 -67 -60 -77 -16 -50 76 -140 127 -124 58 18
167 151 236 289 72 144 122 355 122 511 0 196 -78 460 -181 611 -82 120 -170
199 -209 185z"/>
</g>
</svg>
