<?xml version="1.0" standalone="no"?>
<!DOCTYPE svg PUBLIC "-//W3C//DTD SVG 20010904//EN"
 "http://www.w3.org/TR/2001/REC-SVG-20010904/DTD/svg10.dtd">
<svg version="1.0" xmlns="http://www.w3.org/2000/svg"
 width="533.000000pt" height="533.000000pt" viewBox="0 0 533.000000 533.000000"
 preserveAspectRatio="xMidYMid meet">
<metadata>
Created by potrace 1.16, written by Peter Selinger 2001-2019
</metadata>
<g transform="translate(0.000000,533.000000) scale(0.100000,-0.100000)"
fill="#426683" stroke="none">
<path d="M2049 4806 c-110 -39 -213 -125 -271 -226 -14 -25 -92 -212 -173
-417 l-149 -372 -465 -3 -466 -3 -55 -26 c-102 -48 -169 -137 -190 -251 -7
-36 -9 -517 -8 -1404 3 -1287 4 -1351 22 -1397 25 -66 105 -150 174 -184 l57
-28 2140 0 2140 0 67 33 c76 37 120 82 157 162 l26 55 0 1395 0 1395 -33 67
c-37 76 -82 120 -162 157 l-55 26 -439 5 -440 5 -151 376 c-82 208 -160 394
-172 415 -58 103 -165 188 -281 224 -61 19 -93 20 -636 20 l-571 0 -66 -24z
m1279 -250 c15 -8 35 -23 45 -34 10 -11 72 -154 137 -318 105 -261 120 -306
120 -356 l0 -58 -940 0 -940 0 0 53 c0 44 19 101 116 342 137 343 136 340 177
365 31 19 55 20 645 20 505 0 618 -2 640 -14z m1472 -2416 l0 -1390 -2130 0
-2130 0 0 1390 0 1390 2130 0 2130 0 0 -1390z"/>
<path d="M2536 3155 c-234 -49 -470 -184 -606 -347 -175 -210 -261 -425 -263
-658 -4 -459 328 -877 799 -1007 85 -24 117 -27 229 -27 141 1 211 15 360 73
100 38 240 128 327 210 257 240 382 589 322 901 -91 481 -512 849 -989 866
-71 2 -134 -2 -179 -11z m357 -261 c40 -9 115 -36 167 -61 82 -39 108 -58 186
-137 160 -161 214 -302 214 -556 0 -254 -54 -395 -215 -555 -99 -100 -175
-146 -305 -187 -67 -21 -94 -23 -255 -23 -171 0 -184 2 -260 28 -116 41 -209
100 -297 189 -65 65 -86 95 -127 181 -67 140 -76 182 -76 372 1 181 13 243 72
360 102 204 279 343 498 390 87 19 310 19 398 -1z"/>
</g>
</svg>
